<mxfile host="app.diagrams.net" modified="2024-05-13T18:58:07.207Z" agent="Mozilla/5.0 (Windows NT 10.0; Win64; x64) AppleWebKit/537.36 (KHTML, like Gecko) Chrome/122.0.0.0 YaBrowser/24.4.0.0 Safari/537.36" etag="Wygr0NqhW0uymJ3deaSj" version="24.4.0" type="device">
  <diagram name="Страница — 1" id="tpiYQAHxhK24bNmeltmz">
    <mxGraphModel dx="891" dy="519" grid="1" gridSize="10" guides="1" tooltips="1" connect="1" arrows="1" fold="1" page="1" pageScale="1" pageWidth="827" pageHeight="1169" math="0" shadow="0">
      <root>
        <mxCell id="0" />
        <mxCell id="1" parent="0" />
        <mxCell id="XMWKt4jQ-dOMc4IaM8y--1" value="Арендатор" style="swimlane;whiteSpace=wrap;html=1;" vertex="1" parent="1">
          <mxGeometry x="100" y="285" width="120" height="70" as="geometry">
            <mxRectangle x="120" y="320" width="100" height="80" as="alternateBounds" />
          </mxGeometry>
        </mxCell>
        <mxCell id="XMWKt4jQ-dOMc4IaM8y--29" value="&lt;u&gt;#A&lt;/u&gt;" style="text;html=1;align=left;verticalAlign=middle;resizable=0;points=[];autosize=1;strokeColor=none;fillColor=none;" vertex="1" parent="XMWKt4jQ-dOMc4IaM8y--1">
          <mxGeometry y="28" width="40" height="30" as="geometry" />
        </mxCell>
        <mxCell id="XMWKt4jQ-dOMc4IaM8y--6" value="Участок" style="swimlane;whiteSpace=wrap;html=1;" vertex="1" parent="1">
          <mxGeometry x="280" y="290" width="90" height="60" as="geometry">
            <mxRectangle x="290" y="320" width="80" height="30" as="alternateBounds" />
          </mxGeometry>
        </mxCell>
        <mxCell id="XMWKt4jQ-dOMc4IaM8y--30" value="&lt;u&gt;#К_Н&lt;/u&gt;" style="text;html=1;align=center;verticalAlign=middle;resizable=0;points=[];autosize=1;strokeColor=none;fillColor=none;" vertex="1" parent="XMWKt4jQ-dOMc4IaM8y--6">
          <mxGeometry y="30" width="50" height="30" as="geometry" />
        </mxCell>
        <mxCell id="XMWKt4jQ-dOMc4IaM8y--7" value="Арендодатель" style="swimlane;whiteSpace=wrap;html=1;" vertex="1" parent="1">
          <mxGeometry x="460" y="292.5" width="120" height="55" as="geometry">
            <mxRectangle x="460" y="305" width="120" height="30" as="alternateBounds" />
          </mxGeometry>
        </mxCell>
        <mxCell id="XMWKt4jQ-dOMc4IaM8y--34" value="&lt;u&gt;#B&lt;/u&gt;" style="text;html=1;align=center;verticalAlign=middle;resizable=0;points=[];autosize=1;strokeColor=none;fillColor=none;" vertex="1" parent="XMWKt4jQ-dOMc4IaM8y--7">
          <mxGeometry y="25" width="40" height="30" as="geometry" />
        </mxCell>
        <mxCell id="XMWKt4jQ-dOMc4IaM8y--8" value="Договор аренды" style="swimlane;whiteSpace=wrap;html=1;" vertex="1" parent="1">
          <mxGeometry x="263.75" y="415" width="122.5" height="70" as="geometry">
            <mxRectangle x="265" y="440" width="130" height="30" as="alternateBounds" />
          </mxGeometry>
        </mxCell>
        <mxCell id="XMWKt4jQ-dOMc4IaM8y--36" value="&lt;u&gt;#№_дог&lt;/u&gt;" style="text;html=1;align=left;verticalAlign=middle;resizable=0;points=[];autosize=1;strokeColor=none;fillColor=none;" vertex="1" parent="XMWKt4jQ-dOMc4IaM8y--8">
          <mxGeometry y="20" width="70" height="30" as="geometry" />
        </mxCell>
        <mxCell id="XMWKt4jQ-dOMc4IaM8y--9" value="Оплата" style="swimlane;whiteSpace=wrap;html=1;" vertex="1" parent="1">
          <mxGeometry x="100" y="420" width="90" height="60" as="geometry">
            <mxRectangle x="100" y="440" width="80" height="30" as="alternateBounds" />
          </mxGeometry>
        </mxCell>
        <mxCell id="XMWKt4jQ-dOMc4IaM8y--37" value="&lt;u&gt;#ID_опл&lt;/u&gt;" style="text;html=1;align=left;verticalAlign=middle;resizable=0;points=[];autosize=1;strokeColor=none;fillColor=none;" vertex="1" parent="XMWKt4jQ-dOMc4IaM8y--9">
          <mxGeometry y="15" width="70" height="30" as="geometry" />
        </mxCell>
        <mxCell id="XMWKt4jQ-dOMc4IaM8y--10" value="Строка прейскуранта" style="swimlane;whiteSpace=wrap;html=1;" vertex="1" parent="1">
          <mxGeometry x="460" y="408" width="160" height="82" as="geometry">
            <mxRectangle x="470" y="440" width="160" height="30" as="alternateBounds" />
          </mxGeometry>
        </mxCell>
        <mxCell id="XMWKt4jQ-dOMc4IaM8y--38" value="&lt;u&gt;#строка_прейс&lt;/u&gt;" style="text;html=1;align=left;verticalAlign=middle;resizable=0;points=[];autosize=1;strokeColor=none;fillColor=none;" vertex="1" parent="XMWKt4jQ-dOMc4IaM8y--10">
          <mxGeometry x="5" y="26" width="110" height="30" as="geometry" />
        </mxCell>
        <mxCell id="XMWKt4jQ-dOMc4IaM8y--11" value="Прескурант" style="swimlane;whiteSpace=wrap;html=1;" vertex="1" parent="1">
          <mxGeometry x="707" y="422" width="103" height="66" as="geometry">
            <mxRectangle x="717" y="440" width="110" height="30" as="alternateBounds" />
          </mxGeometry>
        </mxCell>
        <mxCell id="XMWKt4jQ-dOMc4IaM8y--39" value="&lt;u&gt;#прейскурант&lt;/u&gt;" style="text;html=1;align=left;verticalAlign=middle;resizable=0;points=[];autosize=1;strokeColor=none;fillColor=none;" vertex="1" parent="XMWKt4jQ-dOMc4IaM8y--11">
          <mxGeometry x="1.5" y="18" width="100" height="30" as="geometry" />
        </mxCell>
        <mxCell id="XMWKt4jQ-dOMc4IaM8y--12" value="" style="endArrow=none;html=1;rounded=0;entryX=0;entryY=0.5;entryDx=0;entryDy=0;" edge="1" parent="1" target="XMWKt4jQ-dOMc4IaM8y--11">
          <mxGeometry width="50" height="50" relative="1" as="geometry">
            <mxPoint x="620" y="455" as="sourcePoint" />
            <mxPoint x="700" y="440" as="targetPoint" />
          </mxGeometry>
        </mxCell>
        <mxCell id="XMWKt4jQ-dOMc4IaM8y--14" value="" style="endArrow=none;html=1;rounded=0;" edge="1" parent="1">
          <mxGeometry width="50" height="50" relative="1" as="geometry">
            <mxPoint x="620" y="460" as="sourcePoint" />
            <mxPoint x="620" y="449" as="targetPoint" />
            <Array as="points">
              <mxPoint x="630" y="455" />
            </Array>
          </mxGeometry>
        </mxCell>
        <mxCell id="XMWKt4jQ-dOMc4IaM8y--15" value="" style="endArrow=none;dashed=1;html=1;rounded=0;entryX=0;entryY=0.5;entryDx=0;entryDy=0;exitX=1;exitY=0.5;exitDx=0;exitDy=0;" edge="1" parent="1" source="XMWKt4jQ-dOMc4IaM8y--1" target="XMWKt4jQ-dOMc4IaM8y--6">
          <mxGeometry width="50" height="50" relative="1" as="geometry">
            <mxPoint x="200" y="380" as="sourcePoint" />
            <mxPoint x="250" y="330" as="targetPoint" />
          </mxGeometry>
        </mxCell>
        <mxCell id="XMWKt4jQ-dOMc4IaM8y--16" value="" style="endArrow=none;html=1;rounded=0;entryX=0.005;entryY=0.309;entryDx=0;entryDy=0;entryPerimeter=0;exitX=0;exitY=0.667;exitDx=0;exitDy=0;exitPerimeter=0;" edge="1" parent="1" source="XMWKt4jQ-dOMc4IaM8y--6" target="XMWKt4jQ-dOMc4IaM8y--6">
          <mxGeometry width="50" height="50" relative="1" as="geometry">
            <mxPoint x="270" y="360" as="sourcePoint" />
            <mxPoint x="250" y="330" as="targetPoint" />
            <Array as="points">
              <mxPoint x="270" y="320" />
            </Array>
          </mxGeometry>
        </mxCell>
        <mxCell id="XMWKt4jQ-dOMc4IaM8y--17" value="" style="endArrow=none;html=1;rounded=0;entryX=0;entryY=0.5;entryDx=0;entryDy=0;exitX=1;exitY=0.5;exitDx=0;exitDy=0;" edge="1" parent="1" source="XMWKt4jQ-dOMc4IaM8y--6" target="XMWKt4jQ-dOMc4IaM8y--7">
          <mxGeometry width="50" height="50" relative="1" as="geometry">
            <mxPoint x="400" y="380" as="sourcePoint" />
            <mxPoint x="450" y="330" as="targetPoint" />
          </mxGeometry>
        </mxCell>
        <mxCell id="XMWKt4jQ-dOMc4IaM8y--18" value="" style="endArrow=none;html=1;rounded=0;entryX=1.001;entryY=0.355;entryDx=0;entryDy=0;entryPerimeter=0;exitX=1.002;exitY=0.628;exitDx=0;exitDy=0;exitPerimeter=0;" edge="1" parent="1" source="XMWKt4jQ-dOMc4IaM8y--6" target="XMWKt4jQ-dOMc4IaM8y--6">
          <mxGeometry width="50" height="50" relative="1" as="geometry">
            <mxPoint x="380" y="340" as="sourcePoint" />
            <mxPoint x="380" y="330" as="targetPoint" />
            <Array as="points">
              <mxPoint x="380" y="320" />
            </Array>
          </mxGeometry>
        </mxCell>
        <mxCell id="XMWKt4jQ-dOMc4IaM8y--20" value="" style="endArrow=none;dashed=1;html=1;rounded=0;exitX=0.541;exitY=-0.004;exitDx=0;exitDy=0;exitPerimeter=0;" edge="1" parent="1" source="XMWKt4jQ-dOMc4IaM8y--8">
          <mxGeometry width="50" height="50" relative="1" as="geometry">
            <mxPoint x="310" y="430" as="sourcePoint" />
            <mxPoint x="330" y="350" as="targetPoint" />
          </mxGeometry>
        </mxCell>
        <mxCell id="XMWKt4jQ-dOMc4IaM8y--21" value="" style="endArrow=none;html=1;rounded=0;exitX=0.512;exitY=0;exitDx=0;exitDy=0;exitPerimeter=0;entryX=0.57;entryY=-0.003;entryDx=0;entryDy=0;entryPerimeter=0;" edge="1" parent="1" source="XMWKt4jQ-dOMc4IaM8y--8" target="XMWKt4jQ-dOMc4IaM8y--8">
          <mxGeometry width="50" height="50" relative="1" as="geometry">
            <mxPoint x="320" y="440" as="sourcePoint" />
            <mxPoint x="330" y="420" as="targetPoint" />
            <Array as="points">
              <mxPoint x="330" y="410" />
            </Array>
          </mxGeometry>
        </mxCell>
        <mxCell id="XMWKt4jQ-dOMc4IaM8y--22" value="" style="endArrow=none;html=1;rounded=0;" edge="1" parent="1">
          <mxGeometry width="50" height="50" relative="1" as="geometry">
            <mxPoint x="320" y="350" as="sourcePoint" />
            <mxPoint x="340" y="350" as="targetPoint" />
            <Array as="points">
              <mxPoint x="330" y="360" />
            </Array>
          </mxGeometry>
        </mxCell>
        <mxCell id="XMWKt4jQ-dOMc4IaM8y--23" value="" style="endArrow=none;html=1;rounded=0;exitX=1;exitY=0.5;exitDx=0;exitDy=0;entryX=0;entryY=0.5;entryDx=0;entryDy=0;" edge="1" parent="1" source="XMWKt4jQ-dOMc4IaM8y--9" target="XMWKt4jQ-dOMc4IaM8y--8">
          <mxGeometry width="50" height="50" relative="1" as="geometry">
            <mxPoint x="280" y="410" as="sourcePoint" />
            <mxPoint x="330" y="360" as="targetPoint" />
          </mxGeometry>
        </mxCell>
        <mxCell id="XMWKt4jQ-dOMc4IaM8y--24" value="" style="endArrow=none;html=1;rounded=0;entryX=0.997;entryY=0.325;entryDx=0;entryDy=0;entryPerimeter=0;exitX=1.001;exitY=0.648;exitDx=0;exitDy=0;exitPerimeter=0;" edge="1" parent="1" source="XMWKt4jQ-dOMc4IaM8y--9" target="XMWKt4jQ-dOMc4IaM8y--9">
          <mxGeometry width="50" height="50" relative="1" as="geometry">
            <mxPoint x="190" y="470" as="sourcePoint" />
            <mxPoint x="200" y="460" as="targetPoint" />
            <Array as="points">
              <mxPoint x="190" y="455" />
            </Array>
          </mxGeometry>
        </mxCell>
        <mxCell id="XMWKt4jQ-dOMc4IaM8y--25" value="" style="endArrow=none;html=1;rounded=0;" edge="1" parent="1">
          <mxGeometry width="50" height="50" relative="1" as="geometry">
            <mxPoint x="360" y="350" as="sourcePoint" />
            <mxPoint x="460" y="460" as="targetPoint" />
            <Array as="points">
              <mxPoint x="420" y="460" />
            </Array>
          </mxGeometry>
        </mxCell>
        <mxCell id="XMWKt4jQ-dOMc4IaM8y--26" value="" style="endArrow=none;html=1;rounded=0;" edge="1" parent="1">
          <mxGeometry width="50" height="50" relative="1" as="geometry">
            <mxPoint x="460" y="470" as="sourcePoint" />
            <mxPoint x="460" y="450" as="targetPoint" />
            <Array as="points">
              <mxPoint x="450" y="460" />
            </Array>
          </mxGeometry>
        </mxCell>
        <mxCell id="XMWKt4jQ-dOMc4IaM8y--27" value="" style="endArrow=none;html=1;rounded=0;" edge="1" parent="1">
          <mxGeometry width="50" height="50" relative="1" as="geometry">
            <mxPoint x="140" y="480" as="sourcePoint" />
            <mxPoint x="510" y="490" as="targetPoint" />
            <Array as="points">
              <mxPoint x="140" y="510" />
              <mxPoint x="510" y="510" />
            </Array>
          </mxGeometry>
        </mxCell>
        <mxCell id="XMWKt4jQ-dOMc4IaM8y--28" value="" style="endArrow=none;html=1;rounded=0;entryX=0.5;entryY=1;entryDx=0;entryDy=0;" edge="1" parent="1" target="XMWKt4jQ-dOMc4IaM8y--9">
          <mxGeometry width="50" height="50" relative="1" as="geometry">
            <mxPoint x="135" y="480" as="sourcePoint" />
            <mxPoint x="155" y="485" as="targetPoint" />
            <Array as="points">
              <mxPoint x="140" y="490" />
            </Array>
          </mxGeometry>
        </mxCell>
        <mxCell id="XMWKt4jQ-dOMc4IaM8y--32" value="&lt;font style=&quot;font-size: 10px;&quot;&gt;арендует&lt;/font&gt;" style="text;html=1;align=center;verticalAlign=middle;resizable=0;points=[];autosize=1;strokeColor=none;fillColor=none;" vertex="1" parent="1">
          <mxGeometry x="210" y="298" width="70" height="30" as="geometry" />
        </mxCell>
        <mxCell id="XMWKt4jQ-dOMc4IaM8y--33" value="владеет" style="text;html=1;align=center;verticalAlign=middle;resizable=0;points=[];autosize=1;strokeColor=none;fillColor=none;" vertex="1" parent="1">
          <mxGeometry x="375" y="298" width="70" height="30" as="geometry" />
        </mxCell>
        <mxCell id="XMWKt4jQ-dOMc4IaM8y--35" value="&lt;font style=&quot;font-size: 10px;&quot;&gt;имеет&lt;/font&gt;" style="text;html=1;align=center;verticalAlign=middle;resizable=0;points=[];autosize=1;strokeColor=none;fillColor=none;" vertex="1" parent="1">
          <mxGeometry x="280" y="378" width="50" height="30" as="geometry" />
        </mxCell>
        <mxCell id="XMWKt4jQ-dOMc4IaM8y--40" value="&lt;font style=&quot;font-size: 10px;&quot;&gt;оплачивается&lt;/font&gt;" style="text;html=1;align=center;verticalAlign=middle;resizable=0;points=[];autosize=1;strokeColor=none;fillColor=none;" vertex="1" parent="1">
          <mxGeometry x="180" y="422" width="90" height="30" as="geometry" />
        </mxCell>
        <mxCell id="XMWKt4jQ-dOMc4IaM8y--41" value="&lt;font style=&quot;font-size: 10px;&quot;&gt;содержит&lt;/font&gt;" style="text;html=1;align=center;verticalAlign=middle;resizable=0;points=[];autosize=1;strokeColor=none;fillColor=none;" vertex="1" parent="1">
          <mxGeometry x="280" y="500" width="70" height="30" as="geometry" />
        </mxCell>
        <mxCell id="XMWKt4jQ-dOMc4IaM8y--42" value="состоит" style="text;html=1;align=center;verticalAlign=middle;resizable=0;points=[];autosize=1;strokeColor=none;fillColor=none;" vertex="1" parent="1">
          <mxGeometry x="630" y="434" width="70" height="30" as="geometry" />
        </mxCell>
        <mxCell id="XMWKt4jQ-dOMc4IaM8y--43" value="включает" style="text;html=1;align=center;verticalAlign=middle;resizable=0;points=[];autosize=1;strokeColor=none;fillColor=none;" vertex="1" parent="1">
          <mxGeometry x="370" y="370" width="80" height="30" as="geometry" />
        </mxCell>
        <mxCell id="XMWKt4jQ-dOMc4IaM8y--44" value="" style="html=1;shadow=0;dashed=0;align=center;verticalAlign=middle;shape=mxgraph.arrows2.arrow;dy=0.6;dx=40;direction=south;notch=0;" vertex="1" parent="1">
          <mxGeometry x="344" y="520" width="70" height="100" as="geometry" />
        </mxCell>
        <mxCell id="XMWKt4jQ-dOMc4IaM8y--45" value="Арендатор" style="swimlane;whiteSpace=wrap;html=1;" vertex="1" parent="1">
          <mxGeometry x="60" y="660" width="120" height="70" as="geometry">
            <mxRectangle x="120" y="320" width="100" height="80" as="alternateBounds" />
          </mxGeometry>
        </mxCell>
        <mxCell id="XMWKt4jQ-dOMc4IaM8y--46" value="&lt;u&gt;#A&lt;/u&gt;" style="text;html=1;align=center;verticalAlign=middle;resizable=0;points=[];autosize=1;strokeColor=none;fillColor=none;" vertex="1" parent="XMWKt4jQ-dOMc4IaM8y--45">
          <mxGeometry y="20" width="40" height="30" as="geometry" />
        </mxCell>
        <mxCell id="XMWKt4jQ-dOMc4IaM8y--47" value="Участок" style="swimlane;whiteSpace=wrap;html=1;" vertex="1" parent="1">
          <mxGeometry x="280" y="630" width="90" height="90" as="geometry">
            <mxRectangle x="290" y="320" width="80" height="30" as="alternateBounds" />
          </mxGeometry>
        </mxCell>
        <mxCell id="XMWKt4jQ-dOMc4IaM8y--48" value="&lt;u&gt;#К_Н&lt;/u&gt;" style="text;html=1;align=center;verticalAlign=middle;resizable=0;points=[];autosize=1;strokeColor=none;fillColor=none;" vertex="1" parent="XMWKt4jQ-dOMc4IaM8y--47">
          <mxGeometry x="-10" y="15" width="50" height="30" as="geometry" />
        </mxCell>
        <mxCell id="XMWKt4jQ-dOMc4IaM8y--94" value="&lt;font style=&quot;font-size: 10px;&quot;&gt;#A(FK)&lt;/font&gt;" style="text;html=1;align=left;verticalAlign=middle;resizable=0;points=[];autosize=1;strokeColor=none;fillColor=none;" vertex="1" parent="XMWKt4jQ-dOMc4IaM8y--47">
          <mxGeometry y="30" width="60" height="30" as="geometry" />
        </mxCell>
        <mxCell id="XMWKt4jQ-dOMc4IaM8y--95" value="&lt;font style=&quot;font-size: 10px;&quot;&gt;#B(FK)&lt;/font&gt;" style="text;html=1;align=left;verticalAlign=middle;resizable=0;points=[];autosize=1;strokeColor=none;fillColor=none;" vertex="1" parent="XMWKt4jQ-dOMc4IaM8y--47">
          <mxGeometry y="45" width="60" height="30" as="geometry" />
        </mxCell>
        <mxCell id="XMWKt4jQ-dOMc4IaM8y--96" value="&lt;font style=&quot;font-size: 9px;&quot;&gt;#строка_прейс(FK)&lt;/font&gt;" style="text;html=1;align=left;verticalAlign=middle;resizable=0;points=[];autosize=1;strokeColor=none;fillColor=none;" vertex="1" parent="XMWKt4jQ-dOMc4IaM8y--47">
          <mxGeometry y="60" width="100" height="30" as="geometry" />
        </mxCell>
        <mxCell id="XMWKt4jQ-dOMc4IaM8y--49" value="Арендодатель" style="swimlane;whiteSpace=wrap;html=1;" vertex="1" parent="1">
          <mxGeometry x="530" y="667.5" width="120" height="55" as="geometry">
            <mxRectangle x="460" y="305" width="120" height="30" as="alternateBounds" />
          </mxGeometry>
        </mxCell>
        <mxCell id="XMWKt4jQ-dOMc4IaM8y--50" value="&lt;u&gt;#B&lt;/u&gt;" style="text;html=1;align=center;verticalAlign=middle;resizable=0;points=[];autosize=1;strokeColor=none;fillColor=none;" vertex="1" parent="XMWKt4jQ-dOMc4IaM8y--49">
          <mxGeometry y="25" width="40" height="30" as="geometry" />
        </mxCell>
        <mxCell id="XMWKt4jQ-dOMc4IaM8y--51" value="Договор аренды" style="swimlane;whiteSpace=wrap;html=1;" vertex="1" parent="1">
          <mxGeometry x="263.75" y="835" width="122.5" height="70" as="geometry">
            <mxRectangle x="265" y="440" width="130" height="30" as="alternateBounds" />
          </mxGeometry>
        </mxCell>
        <mxCell id="XMWKt4jQ-dOMc4IaM8y--52" value="&lt;u&gt;#№_дог&lt;/u&gt;" style="text;html=1;align=left;verticalAlign=middle;resizable=0;points=[];autosize=1;strokeColor=none;fillColor=none;" vertex="1" parent="XMWKt4jQ-dOMc4IaM8y--51">
          <mxGeometry y="19" width="70" height="30" as="geometry" />
        </mxCell>
        <mxCell id="XMWKt4jQ-dOMc4IaM8y--93" value="#ID_опл(FK)" style="text;html=1;align=left;verticalAlign=middle;resizable=0;points=[];autosize=1;strokeColor=none;fillColor=none;" vertex="1" parent="XMWKt4jQ-dOMc4IaM8y--51">
          <mxGeometry y="40" width="90" height="30" as="geometry" />
        </mxCell>
        <mxCell id="XMWKt4jQ-dOMc4IaM8y--53" value="Оплата" style="swimlane;whiteSpace=wrap;html=1;" vertex="1" parent="1">
          <mxGeometry x="90" y="830" width="100" height="80" as="geometry">
            <mxRectangle x="100" y="440" width="80" height="30" as="alternateBounds" />
          </mxGeometry>
        </mxCell>
        <mxCell id="XMWKt4jQ-dOMc4IaM8y--54" value="&lt;u&gt;#ID_опл&lt;/u&gt;" style="text;html=1;align=left;verticalAlign=middle;resizable=0;points=[];autosize=1;strokeColor=none;fillColor=none;" vertex="1" parent="XMWKt4jQ-dOMc4IaM8y--53">
          <mxGeometry y="20" width="70" height="30" as="geometry" />
        </mxCell>
        <mxCell id="XMWKt4jQ-dOMc4IaM8y--100" value="&lt;font style=&quot;font-size: 10px;&quot;&gt;#№_дог(FK)&lt;/font&gt;" style="text;html=1;align=left;verticalAlign=middle;resizable=0;points=[];autosize=1;strokeColor=none;fillColor=none;" vertex="1" parent="XMWKt4jQ-dOMc4IaM8y--53">
          <mxGeometry y="35" width="80" height="30" as="geometry" />
        </mxCell>
        <mxCell id="XMWKt4jQ-dOMc4IaM8y--101" value="&lt;font style=&quot;font-size: 10px;&quot;&gt;#строка_прейс(FK)&lt;/font&gt;" style="text;html=1;align=left;verticalAlign=middle;resizable=0;points=[];autosize=1;strokeColor=none;fillColor=none;" vertex="1" parent="XMWKt4jQ-dOMc4IaM8y--53">
          <mxGeometry y="50" width="110" height="30" as="geometry" />
        </mxCell>
        <mxCell id="XMWKt4jQ-dOMc4IaM8y--82" value="" style="endArrow=none;html=1;rounded=0;entryX=0.417;entryY=0.999;entryDx=0;entryDy=0;entryPerimeter=0;exitX=0.496;exitY=0.998;exitDx=0;exitDy=0;exitPerimeter=0;" edge="1" parent="XMWKt4jQ-dOMc4IaM8y--53" source="XMWKt4jQ-dOMc4IaM8y--101" target="XMWKt4jQ-dOMc4IaM8y--101">
          <mxGeometry width="50" height="50" relative="1" as="geometry">
            <mxPoint x="150" y="100" as="sourcePoint" />
            <mxPoint x="150" y="90" as="targetPoint" />
            <Array as="points">
              <mxPoint x="50" y="90" />
            </Array>
          </mxGeometry>
        </mxCell>
        <mxCell id="XMWKt4jQ-dOMc4IaM8y--55" value="Строка прейскуранта" style="swimlane;whiteSpace=wrap;html=1;" vertex="1" parent="1">
          <mxGeometry x="450" y="818" width="160" height="82" as="geometry">
            <mxRectangle x="470" y="440" width="160" height="30" as="alternateBounds" />
          </mxGeometry>
        </mxCell>
        <mxCell id="XMWKt4jQ-dOMc4IaM8y--56" value="&lt;u&gt;#строка_прейс&lt;/u&gt;" style="text;html=1;align=left;verticalAlign=middle;resizable=0;points=[];autosize=1;strokeColor=none;fillColor=none;" vertex="1" parent="XMWKt4jQ-dOMc4IaM8y--55">
          <mxGeometry y="18" width="110" height="30" as="geometry" />
        </mxCell>
        <mxCell id="XMWKt4jQ-dOMc4IaM8y--97" value="&lt;font style=&quot;font-size: 10px;&quot;&gt;#K_H(FK)&lt;/font&gt;" style="text;html=1;align=left;verticalAlign=middle;resizable=0;points=[];autosize=1;strokeColor=none;fillColor=none;" vertex="1" parent="XMWKt4jQ-dOMc4IaM8y--55">
          <mxGeometry y="36" width="70" height="30" as="geometry" />
        </mxCell>
        <mxCell id="XMWKt4jQ-dOMc4IaM8y--98" value="&lt;font style=&quot;font-size: 10px;&quot;&gt;#прейскурант(FK)&lt;/font&gt;" style="text;html=1;align=left;verticalAlign=middle;resizable=0;points=[];autosize=1;strokeColor=none;fillColor=none;" vertex="1" parent="XMWKt4jQ-dOMc4IaM8y--55">
          <mxGeometry y="52" width="110" height="30" as="geometry" />
        </mxCell>
        <mxCell id="XMWKt4jQ-dOMc4IaM8y--57" value="Прескурант" style="swimlane;whiteSpace=wrap;html=1;" vertex="1" parent="1">
          <mxGeometry x="707" y="818" width="103" height="66" as="geometry">
            <mxRectangle x="717" y="440" width="110" height="30" as="alternateBounds" />
          </mxGeometry>
        </mxCell>
        <mxCell id="XMWKt4jQ-dOMc4IaM8y--58" value="&lt;u&gt;#прейскурант&lt;/u&gt;" style="text;html=1;align=left;verticalAlign=middle;resizable=0;points=[];autosize=1;strokeColor=none;fillColor=none;" vertex="1" parent="XMWKt4jQ-dOMc4IaM8y--57">
          <mxGeometry y="17" width="100" height="30" as="geometry" />
        </mxCell>
        <mxCell id="XMWKt4jQ-dOMc4IaM8y--99" value="&lt;span style=&quot;font-size: 10px;&quot;&gt;#строка_прейс(FK)&lt;/span&gt;" style="text;html=1;align=left;verticalAlign=middle;resizable=0;points=[];autosize=1;strokeColor=none;fillColor=none;" vertex="1" parent="XMWKt4jQ-dOMc4IaM8y--57">
          <mxGeometry y="36" width="110" height="30" as="geometry" />
        </mxCell>
        <mxCell id="XMWKt4jQ-dOMc4IaM8y--59" value="" style="endArrow=none;html=1;rounded=0;entryX=0;entryY=0.5;entryDx=0;entryDy=0;" edge="1" parent="1" target="XMWKt4jQ-dOMc4IaM8y--57">
          <mxGeometry width="50" height="50" relative="1" as="geometry">
            <mxPoint x="610" y="851" as="sourcePoint" />
            <mxPoint x="700" y="815" as="targetPoint" />
          </mxGeometry>
        </mxCell>
        <mxCell id="XMWKt4jQ-dOMc4IaM8y--60" value="" style="endArrow=none;html=1;rounded=0;" edge="1" parent="1">
          <mxGeometry width="50" height="50" relative="1" as="geometry">
            <mxPoint x="610" y="856.5" as="sourcePoint" />
            <mxPoint x="610" y="845.5" as="targetPoint" />
            <Array as="points">
              <mxPoint x="620" y="851.5" />
            </Array>
          </mxGeometry>
        </mxCell>
        <mxCell id="XMWKt4jQ-dOMc4IaM8y--61" value="" style="endArrow=none;dashed=1;html=1;rounded=0;exitX=1;exitY=0.5;exitDx=0;exitDy=0;" edge="1" parent="1" source="XMWKt4jQ-dOMc4IaM8y--45">
          <mxGeometry width="50" height="50" relative="1" as="geometry">
            <mxPoint x="200" y="755" as="sourcePoint" />
            <mxPoint x="280" y="695" as="targetPoint" />
          </mxGeometry>
        </mxCell>
        <mxCell id="XMWKt4jQ-dOMc4IaM8y--62" value="" style="endArrow=none;html=1;rounded=0;" edge="1" parent="1">
          <mxGeometry width="50" height="50" relative="1" as="geometry">
            <mxPoint x="280" y="700" as="sourcePoint" />
            <mxPoint x="280" y="690" as="targetPoint" />
            <Array as="points">
              <mxPoint x="270" y="695" />
            </Array>
          </mxGeometry>
        </mxCell>
        <mxCell id="XMWKt4jQ-dOMc4IaM8y--63" value="" style="endArrow=none;html=1;rounded=0;entryX=0;entryY=0.5;entryDx=0;entryDy=0;" edge="1" parent="1" target="XMWKt4jQ-dOMc4IaM8y--49">
          <mxGeometry width="50" height="50" relative="1" as="geometry">
            <mxPoint x="370" y="695" as="sourcePoint" />
            <mxPoint x="450" y="705" as="targetPoint" />
          </mxGeometry>
        </mxCell>
        <mxCell id="XMWKt4jQ-dOMc4IaM8y--64" value="" style="endArrow=none;html=1;rounded=0;" edge="1" parent="1">
          <mxGeometry width="50" height="50" relative="1" as="geometry">
            <mxPoint x="370" y="700" as="sourcePoint" />
            <mxPoint x="370" y="690" as="targetPoint" />
            <Array as="points">
              <mxPoint x="380" y="695" />
            </Array>
          </mxGeometry>
        </mxCell>
        <mxCell id="XMWKt4jQ-dOMc4IaM8y--68" value="" style="endArrow=none;html=1;rounded=0;entryX=0;entryY=0.5;entryDx=0;entryDy=0;" edge="1" parent="1" target="XMWKt4jQ-dOMc4IaM8y--51">
          <mxGeometry width="50" height="50" relative="1" as="geometry">
            <mxPoint x="190" y="870" as="sourcePoint" />
            <mxPoint x="330" y="735" as="targetPoint" />
          </mxGeometry>
        </mxCell>
        <mxCell id="XMWKt4jQ-dOMc4IaM8y--70" value="" style="endArrow=none;html=1;rounded=0;exitX=0.9;exitY=0.667;exitDx=0;exitDy=0;exitPerimeter=0;" edge="1" parent="1" source="XMWKt4jQ-dOMc4IaM8y--96">
          <mxGeometry width="50" height="50" relative="1" as="geometry">
            <mxPoint x="370" y="720" as="sourcePoint" />
            <mxPoint x="450" y="850" as="targetPoint" />
            <Array as="points">
              <mxPoint x="420" y="710" />
              <mxPoint x="420" y="780" />
              <mxPoint x="420" y="850" />
            </Array>
          </mxGeometry>
        </mxCell>
        <mxCell id="XMWKt4jQ-dOMc4IaM8y--71" value="" style="endArrow=none;html=1;rounded=0;" edge="1" parent="1">
          <mxGeometry width="50" height="50" relative="1" as="geometry">
            <mxPoint x="450" y="860" as="sourcePoint" />
            <mxPoint x="450" y="840" as="targetPoint" />
            <Array as="points">
              <mxPoint x="440" y="850" />
            </Array>
          </mxGeometry>
        </mxCell>
        <mxCell id="XMWKt4jQ-dOMc4IaM8y--72" value="" style="endArrow=none;html=1;rounded=0;" edge="1" parent="1">
          <mxGeometry width="50" height="50" relative="1" as="geometry">
            <mxPoint x="140" y="910" as="sourcePoint" />
            <mxPoint x="510" y="900" as="targetPoint" />
            <Array as="points">
              <mxPoint x="140" y="930" />
              <mxPoint x="510.01" y="925" />
            </Array>
          </mxGeometry>
        </mxCell>
        <mxCell id="XMWKt4jQ-dOMc4IaM8y--81" value="" style="endArrow=none;html=1;rounded=0;entryX=1.002;entryY=0.365;entryDx=0;entryDy=0;entryPerimeter=0;" edge="1" parent="1">
          <mxGeometry width="50" height="50" relative="1" as="geometry">
            <mxPoint x="190" y="860" as="sourcePoint" />
            <mxPoint x="190" y="879.5100000000001" as="targetPoint" />
            <Array as="points">
              <mxPoint x="200" y="870" />
            </Array>
          </mxGeometry>
        </mxCell>
        <mxCell id="XMWKt4jQ-dOMc4IaM8y--84" value="Д_У" style="swimlane;whiteSpace=wrap;html=1;" vertex="1" parent="1">
          <mxGeometry x="280" y="748" width="88.75" height="70" as="geometry" />
        </mxCell>
        <mxCell id="XMWKt4jQ-dOMc4IaM8y--85" value="#К_Н(FK)" style="text;html=1;align=left;verticalAlign=middle;resizable=0;points=[];autosize=1;strokeColor=none;fillColor=none;" vertex="1" parent="XMWKt4jQ-dOMc4IaM8y--84">
          <mxGeometry y="20" width="80" height="30" as="geometry" />
        </mxCell>
        <mxCell id="XMWKt4jQ-dOMc4IaM8y--86" value="#№_дог(FK)" style="text;html=1;align=center;verticalAlign=middle;resizable=0;points=[];autosize=1;strokeColor=none;fillColor=none;" vertex="1" parent="XMWKt4jQ-dOMc4IaM8y--84">
          <mxGeometry x="-10" y="40" width="90" height="30" as="geometry" />
        </mxCell>
        <mxCell id="XMWKt4jQ-dOMc4IaM8y--92" value="" style="endArrow=none;html=1;rounded=0;exitX=0.467;exitY=1.008;exitDx=0;exitDy=0;exitPerimeter=0;entryX=0.639;entryY=1.004;entryDx=0;entryDy=0;entryPerimeter=0;" edge="1" parent="XMWKt4jQ-dOMc4IaM8y--84" source="XMWKt4jQ-dOMc4IaM8y--86" target="XMWKt4jQ-dOMc4IaM8y--86">
          <mxGeometry width="50" height="50" relative="1" as="geometry">
            <mxPoint x="30" y="72" as="sourcePoint" />
            <mxPoint x="50" y="72" as="targetPoint" />
            <Array as="points">
              <mxPoint x="40" y="82" />
            </Array>
          </mxGeometry>
        </mxCell>
        <mxCell id="XMWKt4jQ-dOMc4IaM8y--89" value="" style="endArrow=none;dashed=1;html=1;rounded=0;entryX=0.45;entryY=0.002;entryDx=0;entryDy=0;entryPerimeter=0;exitX=0.398;exitY=1.042;exitDx=0;exitDy=0;exitPerimeter=0;" edge="1" parent="1" source="XMWKt4jQ-dOMc4IaM8y--96" target="XMWKt4jQ-dOMc4IaM8y--84">
          <mxGeometry width="50" height="50" relative="1" as="geometry">
            <mxPoint x="320" y="730" as="sourcePoint" />
            <mxPoint x="310" y="740" as="targetPoint" />
          </mxGeometry>
        </mxCell>
        <mxCell id="XMWKt4jQ-dOMc4IaM8y--90" value="" style="endArrow=none;html=1;rounded=0;entryX=0.5;entryY=0;entryDx=0;entryDy=0;exitX=0.395;exitY=0.001;exitDx=0;exitDy=0;exitPerimeter=0;" edge="1" parent="1" source="XMWKt4jQ-dOMc4IaM8y--84" target="XMWKt4jQ-dOMc4IaM8y--84">
          <mxGeometry width="50" height="50" relative="1" as="geometry">
            <mxPoint x="310" y="730" as="sourcePoint" />
            <mxPoint x="330" y="730" as="targetPoint" />
            <Array as="points">
              <mxPoint x="320" y="740" />
            </Array>
          </mxGeometry>
        </mxCell>
        <mxCell id="XMWKt4jQ-dOMc4IaM8y--91" value="" style="endArrow=none;dashed=1;html=1;rounded=0;entryX=0.556;entryY=1.006;entryDx=0;entryDy=0;entryPerimeter=0;exitX=0.459;exitY=0.004;exitDx=0;exitDy=0;exitPerimeter=0;" edge="1" parent="1" source="XMWKt4jQ-dOMc4IaM8y--51" target="XMWKt4jQ-dOMc4IaM8y--86">
          <mxGeometry width="50" height="50" relative="1" as="geometry">
            <mxPoint x="310" y="840" as="sourcePoint" />
            <mxPoint x="360" y="790" as="targetPoint" />
          </mxGeometry>
        </mxCell>
      </root>
    </mxGraphModel>
  </diagram>
</mxfile>
